# xmcd
#
# Track frame offsets:
#	150
#	16315
#	33242
#	58442
#	72967
#	93622
#	119215
#	134770
#	157867
#	174900
#	206570
#	224845
#	241735
#
# Disc length: 3502 seconds
#
# Revision: 1
# Processed by: cddbd v1.4PL0 Copyright (c) Steve Scherf et al.
# Submitted via: audiograbber 1.81.03
#
DISCID=c50dac0d
DTITLE=Pat Ramsey - It's About Time
DYEAR=1995
DGENRE=Blues
TTITLE0=Allergic To Work
TTITLE1=Georgiea Swing
TTITLE2=King Of Fools
TTITLE3=Stingin' Stang
TTITLE4=I Need Money
TTITLE5=Broken Hearted
TTITLE6=It's About Time
TTITLE7=Jammin' In The Jungle
TTITLE8=Baby Baby Let's Go
TTITLE9=Loan Me A Dime
TTITLE10=Too Many Drivers
TTITLE11=We Can Fly
TTITLE12=Hippie Song
EXTD=
EXTT0=
EXTT1=
EXTT2=
EXTT3=
EXTT4=
EXTT5=
EXTT6=
EXTT7=
EXTT8=
EXTT9=
EXTT10=
EXTT11=
EXTT12=
PLAYORDER=
